<mxfile host="app.diagrams.net" modified="2021-01-05T11:07:28.273Z" agent="5.0 (X11; Linux x86_64) AppleWebKit/537.36 (KHTML, like Gecko) Chrome/87.0.4280.66 Safari/537.36" etag="mwJr3lBTy_zMRIDVRMlz" version="14.1.8" type="github" pages="5">
  <diagram id="vPzD-Wpo7etqd_KNEoi4" name="dingtalk_openapi_ent_000">
    <mxGraphModel dx="1422" dy="737" grid="1" gridSize="10" guides="1" tooltips="1" connect="1" arrows="1" fold="1" page="1" pageScale="1" pageWidth="1200" pageHeight="1920" math="0" shadow="0">
      <root>
        <mxCell id="lzIYmvuplW2zlDW2XlVa-0" />
        <mxCell id="lzIYmvuplW2zlDW2XlVa-1" parent="lzIYmvuplW2zlDW2XlVa-0" />
        <mxCell id="ROyWMD74HyqL_B-godrN-1" value="&lt;b&gt;企业开通流程&lt;/b&gt;" style="text;html=1;strokeColor=none;fillColor=none;align=left;verticalAlign=middle;whiteSpace=wrap;" parent="lzIYmvuplW2zlDW2XlVa-1" vertex="1">
          <mxGeometry x="40" y="40" width="90" height="20" as="geometry" />
        </mxCell>
        <mxCell id="ROyWMD74HyqL_B-godrN-3" value="企业管理员" style="shape=umlLifeline;perimeter=lifelinePerimeter;whiteSpace=wrap;html=1;container=1;collapsible=0;recursiveResize=0;outlineConnect=0;" parent="lzIYmvuplW2zlDW2XlVa-1" vertex="1">
          <mxGeometry x="40" y="80" width="100" height="520" as="geometry" />
        </mxCell>
        <mxCell id="ROyWMD74HyqL_B-godrN-8" value="" style="html=1;points=[];perimeter=orthogonalPerimeter;" parent="ROyWMD74HyqL_B-godrN-3" vertex="1">
          <mxGeometry x="45" y="80" width="10" height="80" as="geometry" />
        </mxCell>
        <mxCell id="ROyWMD74HyqL_B-godrN-4" value="钉钉系统" style="shape=umlLifeline;perimeter=lifelinePerimeter;whiteSpace=wrap;html=1;container=1;collapsible=0;recursiveResize=0;outlineConnect=0;" parent="lzIYmvuplW2zlDW2XlVa-1" vertex="1">
          <mxGeometry x="280" y="80" width="100" height="520" as="geometry" />
        </mxCell>
        <mxCell id="ROyWMD74HyqL_B-godrN-9" value="" style="html=1;points=[];perimeter=orthogonalPerimeter;" parent="ROyWMD74HyqL_B-godrN-4" vertex="1">
          <mxGeometry x="45" y="80" width="10" height="80" as="geometry" />
        </mxCell>
        <mxCell id="ROyWMD74HyqL_B-godrN-5" value="聚石塔代理" style="shape=umlLifeline;perimeter=lifelinePerimeter;whiteSpace=wrap;html=1;container=1;collapsible=0;recursiveResize=0;outlineConnect=0;" parent="lzIYmvuplW2zlDW2XlVa-1" vertex="1">
          <mxGeometry x="520" y="80" width="100" height="520" as="geometry" />
        </mxCell>
        <mxCell id="ROyWMD74HyqL_B-godrN-12" value="" style="html=1;points=[];perimeter=orthogonalPerimeter;" parent="ROyWMD74HyqL_B-godrN-5" vertex="1">
          <mxGeometry x="45" y="110" width="10" height="370" as="geometry" />
        </mxCell>
        <mxCell id="ROyWMD74HyqL_B-godrN-10" value="" style="edgeStyle=orthogonalEdgeStyle;orthogonalLoop=1;jettySize=auto;html=1;" parent="lzIYmvuplW2zlDW2XlVa-1" source="ROyWMD74HyqL_B-godrN-8" target="ROyWMD74HyqL_B-godrN-9" edge="1">
          <mxGeometry relative="1" as="geometry">
            <Array as="points">
              <mxPoint x="220" y="170" />
              <mxPoint x="220" y="170" />
            </Array>
          </mxGeometry>
        </mxCell>
        <mxCell id="ROyWMD74HyqL_B-godrN-11" value="在钉钉企业后台&lt;br&gt;授权开通第三方应用" style="text;html=1;align=center;verticalAlign=middle;resizable=0;points=[];autosize=1;" parent="lzIYmvuplW2zlDW2XlVa-1" vertex="1">
          <mxGeometry x="150" y="135" width="120" height="30" as="geometry" />
        </mxCell>
        <mxCell id="ROyWMD74HyqL_B-godrN-13" value="" style="edgeStyle=orthogonalEdgeStyle;orthogonalLoop=1;jettySize=auto;html=1;dashed=1;" parent="lzIYmvuplW2zlDW2XlVa-1" source="ROyWMD74HyqL_B-godrN-9" target="ROyWMD74HyqL_B-godrN-12" edge="1">
          <mxGeometry relative="1" as="geometry">
            <Array as="points">
              <mxPoint x="510" y="200" />
              <mxPoint x="510" y="200" />
            </Array>
          </mxGeometry>
        </mxCell>
        <mxCell id="ROyWMD74HyqL_B-godrN-14" value="以RDS推送企业授权信息" style="text;html=1;align=center;verticalAlign=middle;resizable=0;points=[];autosize=1;" parent="lzIYmvuplW2zlDW2XlVa-1" vertex="1">
          <mxGeometry x="375" y="170" width="150" height="20" as="geometry" />
        </mxCell>
        <mxCell id="ROyWMD74HyqL_B-godrN-19" value="飞巴开放平台" style="shape=umlLifeline;perimeter=lifelinePerimeter;whiteSpace=wrap;html=1;container=1;collapsible=0;recursiveResize=0;outlineConnect=0;" parent="lzIYmvuplW2zlDW2XlVa-1" vertex="1">
          <mxGeometry x="760" y="80" width="100" height="530" as="geometry" />
        </mxCell>
        <mxCell id="ROyWMD74HyqL_B-godrN-17" value="" style="html=1;points=[];perimeter=orthogonalPerimeter;" parent="ROyWMD74HyqL_B-godrN-19" vertex="1">
          <mxGeometry x="45" y="140" width="10" height="80" as="geometry" />
        </mxCell>
        <mxCell id="ROyWMD74HyqL_B-godrN-26" style="edgeStyle=orthogonalEdgeStyle;orthogonalLoop=1;jettySize=auto;html=1;curved=1;" parent="ROyWMD74HyqL_B-godrN-19" source="ROyWMD74HyqL_B-godrN-17" target="ROyWMD74HyqL_B-godrN-17" edge="1">
          <mxGeometry relative="1" as="geometry" />
        </mxCell>
        <mxCell id="ROyWMD74HyqL_B-godrN-33" value="" style="edgeStyle=orthogonalEdgeStyle;orthogonalLoop=1;jettySize=auto;html=1;curved=1;" parent="ROyWMD74HyqL_B-godrN-19" source="ROyWMD74HyqL_B-godrN-29" target="ROyWMD74HyqL_B-godrN-29" edge="1">
          <mxGeometry relative="1" as="geometry">
            <mxPoint x="135" y="275" as="targetPoint" />
          </mxGeometry>
        </mxCell>
        <mxCell id="ROyWMD74HyqL_B-godrN-29" value="" style="html=1;points=[];perimeter=orthogonalPerimeter;" parent="ROyWMD74HyqL_B-godrN-19" vertex="1">
          <mxGeometry x="45" y="240" width="10" height="70" as="geometry" />
        </mxCell>
        <mxCell id="ROyWMD74HyqL_B-godrN-39" value="" style="edgeStyle=orthogonalEdgeStyle;orthogonalLoop=1;jettySize=auto;html=1;curved=1;" parent="ROyWMD74HyqL_B-godrN-19" source="ROyWMD74HyqL_B-godrN-36" target="ROyWMD74HyqL_B-godrN-36" edge="1">
          <mxGeometry relative="1" as="geometry">
            <mxPoint x="135" y="380" as="targetPoint" />
          </mxGeometry>
        </mxCell>
        <mxCell id="ROyWMD74HyqL_B-godrN-36" value="" style="html=1;points=[];perimeter=orthogonalPerimeter;" parent="ROyWMD74HyqL_B-godrN-19" vertex="1">
          <mxGeometry x="45" y="340" width="10" height="80" as="geometry" />
        </mxCell>
        <mxCell id="ROyWMD74HyqL_B-godrN-44" value="" style="edgeStyle=orthogonalEdgeStyle;orthogonalLoop=1;jettySize=auto;html=1;curved=1;" parent="ROyWMD74HyqL_B-godrN-19" source="ROyWMD74HyqL_B-godrN-41" target="ROyWMD74HyqL_B-godrN-41" edge="1">
          <mxGeometry relative="1" as="geometry">
            <mxPoint x="135" y="480" as="targetPoint" />
          </mxGeometry>
        </mxCell>
        <mxCell id="ROyWMD74HyqL_B-godrN-41" value="" style="html=1;points=[];perimeter=orthogonalPerimeter;" parent="ROyWMD74HyqL_B-godrN-19" vertex="1">
          <mxGeometry x="45" y="440" width="10" height="80" as="geometry" />
        </mxCell>
        <mxCell id="ROyWMD74HyqL_B-godrN-18" value="" style="edgeStyle=orthogonalEdgeStyle;orthogonalLoop=1;jettySize=auto;html=1;dashed=1;" parent="lzIYmvuplW2zlDW2XlVa-1" source="ROyWMD74HyqL_B-godrN-12" target="ROyWMD74HyqL_B-godrN-17" edge="1">
          <mxGeometry relative="1" as="geometry">
            <Array as="points">
              <mxPoint x="750" y="230" />
              <mxPoint x="750" y="230" />
            </Array>
          </mxGeometry>
        </mxCell>
        <mxCell id="ROyWMD74HyqL_B-godrN-23" value="同步企业信息" style="text;html=1;align=center;verticalAlign=middle;resizable=0;points=[];autosize=1;" parent="lzIYmvuplW2zlDW2XlVa-1" vertex="1">
          <mxGeometry x="630" y="200" width="90" height="20" as="geometry" />
        </mxCell>
        <mxCell id="ROyWMD74HyqL_B-godrN-27" value="注册/更新&lt;br&gt;企业信息" style="text;html=1;align=center;verticalAlign=middle;resizable=0;points=[];autosize=1;" parent="lzIYmvuplW2zlDW2XlVa-1" vertex="1">
          <mxGeometry x="840" y="230" width="70" height="30" as="geometry" />
        </mxCell>
        <mxCell id="ROyWMD74HyqL_B-godrN-30" value="" style="orthogonalLoop=1;jettySize=auto;html=1;dashed=1;" parent="lzIYmvuplW2zlDW2XlVa-1" source="ROyWMD74HyqL_B-godrN-12" target="ROyWMD74HyqL_B-godrN-29" edge="1">
          <mxGeometry relative="1" as="geometry">
            <Array as="points">
              <mxPoint x="690" y="340" />
            </Array>
          </mxGeometry>
        </mxCell>
        <mxCell id="ROyWMD74HyqL_B-godrN-31" value="同步企业部门信息" style="text;html=1;align=center;verticalAlign=middle;resizable=0;points=[];autosize=1;" parent="lzIYmvuplW2zlDW2XlVa-1" vertex="1">
          <mxGeometry x="630" y="310" width="110" height="20" as="geometry" />
        </mxCell>
        <mxCell id="ROyWMD74HyqL_B-godrN-34" value="更新&lt;br&gt;企业部门信息" style="text;html=1;align=center;verticalAlign=middle;resizable=0;points=[];autosize=1;" parent="lzIYmvuplW2zlDW2XlVa-1" vertex="1">
          <mxGeometry x="830" y="340" width="90" height="30" as="geometry" />
        </mxCell>
        <mxCell id="ROyWMD74HyqL_B-godrN-37" style="orthogonalLoop=1;jettySize=auto;html=1;dashed=1;" parent="lzIYmvuplW2zlDW2XlVa-1" source="ROyWMD74HyqL_B-godrN-12" target="ROyWMD74HyqL_B-godrN-36" edge="1">
          <mxGeometry relative="1" as="geometry">
            <Array as="points">
              <mxPoint x="690" y="440" />
            </Array>
          </mxGeometry>
        </mxCell>
        <mxCell id="ROyWMD74HyqL_B-godrN-40" value="同步企业员工信息" style="text;html=1;align=center;verticalAlign=middle;resizable=0;points=[];autosize=1;" parent="lzIYmvuplW2zlDW2XlVa-1" vertex="1">
          <mxGeometry x="630" y="410" width="110" height="20" as="geometry" />
        </mxCell>
        <mxCell id="ROyWMD74HyqL_B-godrN-42" style="orthogonalLoop=1;jettySize=auto;html=1;dashed=1;" parent="lzIYmvuplW2zlDW2XlVa-1" source="ROyWMD74HyqL_B-godrN-12" target="ROyWMD74HyqL_B-godrN-41" edge="1">
          <mxGeometry relative="1" as="geometry">
            <Array as="points">
              <mxPoint x="690" y="540" />
            </Array>
          </mxGeometry>
        </mxCell>
        <mxCell id="ROyWMD74HyqL_B-godrN-45" value="同步企业员工角色信息" style="text;html=1;align=center;verticalAlign=middle;resizable=0;points=[];autosize=1;" parent="lzIYmvuplW2zlDW2XlVa-1" vertex="1">
          <mxGeometry x="630" y="510" width="140" height="20" as="geometry" />
        </mxCell>
        <mxCell id="ROyWMD74HyqL_B-godrN-46" value="更新&lt;br&gt;企业员工信息" style="text;html=1;align=center;verticalAlign=middle;resizable=0;points=[];autosize=1;" parent="lzIYmvuplW2zlDW2XlVa-1" vertex="1">
          <mxGeometry x="840" y="450" width="90" height="30" as="geometry" />
        </mxCell>
        <mxCell id="ROyWMD74HyqL_B-godrN-47" value="更新&lt;br&gt;企业角色信息" style="text;html=1;align=center;verticalAlign=middle;resizable=0;points=[];autosize=1;" parent="lzIYmvuplW2zlDW2XlVa-1" vertex="1">
          <mxGeometry x="840" y="550" width="90" height="30" as="geometry" />
        </mxCell>
        <mxCell id="ROyWMD74HyqL_B-godrN-48" value="企业开通：企业开通指的是企业管理员在钉钉后台入驻到飞巴应用上来，并为飞巴应用授权相应的企业信息。" style="text;html=1;align=left;verticalAlign=middle;resizable=0;points=[];autosize=1;" parent="lzIYmvuplW2zlDW2XlVa-1" vertex="1">
          <mxGeometry x="40" y="660" width="590" height="20" as="geometry" />
        </mxCell>
        <mxCell id="XfqAjCLGHTh9f_zEp6VF-0" value="聚石塔代理：根据钉钉第三方应用开发者规范要求，需要在聚石塔云平台上部署一个代理用于实现第三方服务与钉钉之间的服务交互，我们称为部署在聚石塔代理。" style="text;html=1;align=left;verticalAlign=middle;resizable=0;points=[];autosize=1;" parent="lzIYmvuplW2zlDW2XlVa-1" vertex="1">
          <mxGeometry x="40" y="710" width="880" height="20" as="geometry" />
        </mxCell>
        <mxCell id="CAdSRAxTMOZP6rrSwl_J-0" value="RDS：钉钉以推送关系型数据库（Relational Database System，RDS）表的形式同步数据到服务开发商部署在聚石塔的代理端，目前仅支持MySQL数据库。" style="text;html=1;align=left;verticalAlign=middle;resizable=0;points=[];autosize=1;" parent="lzIYmvuplW2zlDW2XlVa-1" vertex="1">
          <mxGeometry x="40" y="760" width="850" height="20" as="geometry" />
        </mxCell>
      </root>
    </mxGraphModel>
  </diagram>
  <diagram name="dingtalk_openapi_ent_001" id="NJfmSJ3Z6EROwrKiT6tM">
    <mxGraphModel dx="1422" dy="737" grid="1" gridSize="10" guides="1" tooltips="1" connect="1" arrows="1" fold="1" page="1" pageScale="1" pageWidth="1200" pageHeight="1920" math="0" shadow="0">
      <root>
        <mxCell id="b8aBz9sjtjlgImkw413s-0" />
        <mxCell id="b8aBz9sjtjlgImkw413s-1" parent="b8aBz9sjtjlgImkw413s-0" />
        <mxCell id="b8aBz9sjtjlgImkw413s-2" value="&lt;b&gt;企业信息变更流程&lt;/b&gt;" style="text;html=1;strokeColor=none;fillColor=none;align=left;verticalAlign=middle;whiteSpace=wrap;rounded=0;" parent="b8aBz9sjtjlgImkw413s-1" vertex="1">
          <mxGeometry x="40" y="40" width="100" height="20" as="geometry" />
        </mxCell>
        <mxCell id="b8aBz9sjtjlgImkw413s-3" value="企业管理员" style="shape=umlLifeline;perimeter=lifelinePerimeter;whiteSpace=wrap;html=1;container=1;collapsible=0;recursiveResize=0;outlineConnect=0;" parent="b8aBz9sjtjlgImkw413s-1" vertex="1">
          <mxGeometry x="40" y="80" width="100" height="520" as="geometry" />
        </mxCell>
        <mxCell id="b8aBz9sjtjlgImkw413s-4" value="" style="html=1;points=[];perimeter=orthogonalPerimeter;" parent="b8aBz9sjtjlgImkw413s-3" vertex="1">
          <mxGeometry x="45" y="80" width="10" height="80" as="geometry" />
        </mxCell>
        <mxCell id="b8aBz9sjtjlgImkw413s-5" value="钉钉系统" style="shape=umlLifeline;perimeter=lifelinePerimeter;whiteSpace=wrap;html=1;container=1;collapsible=0;recursiveResize=0;outlineConnect=0;" parent="b8aBz9sjtjlgImkw413s-1" vertex="1">
          <mxGeometry x="280" y="80" width="100" height="520" as="geometry" />
        </mxCell>
        <mxCell id="b8aBz9sjtjlgImkw413s-6" value="" style="html=1;points=[];perimeter=orthogonalPerimeter;" parent="b8aBz9sjtjlgImkw413s-5" vertex="1">
          <mxGeometry x="45" y="80" width="10" height="80" as="geometry" />
        </mxCell>
        <mxCell id="b8aBz9sjtjlgImkw413s-7" value="聚石塔代理" style="shape=umlLifeline;perimeter=lifelinePerimeter;whiteSpace=wrap;html=1;container=1;collapsible=0;recursiveResize=0;outlineConnect=0;" parent="b8aBz9sjtjlgImkw413s-1" vertex="1">
          <mxGeometry x="520" y="80" width="100" height="520" as="geometry" />
        </mxCell>
        <mxCell id="b8aBz9sjtjlgImkw413s-8" value="" style="html=1;points=[];perimeter=orthogonalPerimeter;" parent="b8aBz9sjtjlgImkw413s-7" vertex="1">
          <mxGeometry x="45" y="110" width="10" height="370" as="geometry" />
        </mxCell>
        <mxCell id="b8aBz9sjtjlgImkw413s-9" value="" style="edgeStyle=orthogonalEdgeStyle;rounded=0;orthogonalLoop=1;jettySize=auto;html=1;" parent="b8aBz9sjtjlgImkw413s-1" source="b8aBz9sjtjlgImkw413s-4" target="b8aBz9sjtjlgImkw413s-6" edge="1">
          <mxGeometry relative="1" as="geometry">
            <Array as="points">
              <mxPoint x="220" y="170" />
              <mxPoint x="220" y="170" />
            </Array>
          </mxGeometry>
        </mxCell>
        <mxCell id="b8aBz9sjtjlgImkw413s-10" value="在钉钉企业管理后台&lt;br&gt;变更企业信息" style="text;html=1;align=center;verticalAlign=middle;resizable=0;points=[];autosize=1;" parent="b8aBz9sjtjlgImkw413s-1" vertex="1">
          <mxGeometry x="150" y="135" width="120" height="30" as="geometry" />
        </mxCell>
        <mxCell id="b8aBz9sjtjlgImkw413s-11" value="" style="edgeStyle=orthogonalEdgeStyle;rounded=0;orthogonalLoop=1;jettySize=auto;html=1;dashed=1;" parent="b8aBz9sjtjlgImkw413s-1" source="b8aBz9sjtjlgImkw413s-6" target="b8aBz9sjtjlgImkw413s-8" edge="1">
          <mxGeometry relative="1" as="geometry">
            <Array as="points">
              <mxPoint x="510" y="200" />
              <mxPoint x="510" y="200" />
            </Array>
          </mxGeometry>
        </mxCell>
        <mxCell id="b8aBz9sjtjlgImkw413s-12" value="以RDS方式推送企业变更信息" style="text;html=1;align=center;verticalAlign=middle;resizable=0;points=[];autosize=1;" parent="b8aBz9sjtjlgImkw413s-1" vertex="1">
          <mxGeometry x="365" y="170" width="170" height="20" as="geometry" />
        </mxCell>
        <mxCell id="b8aBz9sjtjlgImkw413s-13" value="飞巴开放平台" style="shape=umlLifeline;perimeter=lifelinePerimeter;whiteSpace=wrap;html=1;container=1;collapsible=0;recursiveResize=0;outlineConnect=0;" parent="b8aBz9sjtjlgImkw413s-1" vertex="1">
          <mxGeometry x="760" y="80" width="100" height="530" as="geometry" />
        </mxCell>
        <mxCell id="b8aBz9sjtjlgImkw413s-14" value="" style="html=1;points=[];perimeter=orthogonalPerimeter;" parent="b8aBz9sjtjlgImkw413s-13" vertex="1">
          <mxGeometry x="45" y="140" width="10" height="80" as="geometry" />
        </mxCell>
        <mxCell id="b8aBz9sjtjlgImkw413s-15" style="edgeStyle=orthogonalEdgeStyle;rounded=0;orthogonalLoop=1;jettySize=auto;html=1;curved=1;" parent="b8aBz9sjtjlgImkw413s-13" source="b8aBz9sjtjlgImkw413s-14" target="b8aBz9sjtjlgImkw413s-14" edge="1">
          <mxGeometry relative="1" as="geometry" />
        </mxCell>
        <mxCell id="b8aBz9sjtjlgImkw413s-16" value="" style="edgeStyle=orthogonalEdgeStyle;rounded=0;orthogonalLoop=1;jettySize=auto;html=1;curved=1;" parent="b8aBz9sjtjlgImkw413s-13" source="b8aBz9sjtjlgImkw413s-17" target="b8aBz9sjtjlgImkw413s-17" edge="1">
          <mxGeometry relative="1" as="geometry">
            <mxPoint x="135" y="275" as="targetPoint" />
          </mxGeometry>
        </mxCell>
        <mxCell id="b8aBz9sjtjlgImkw413s-17" value="" style="html=1;points=[];perimeter=orthogonalPerimeter;" parent="b8aBz9sjtjlgImkw413s-13" vertex="1">
          <mxGeometry x="45" y="240" width="10" height="70" as="geometry" />
        </mxCell>
        <mxCell id="b8aBz9sjtjlgImkw413s-18" value="" style="edgeStyle=orthogonalEdgeStyle;rounded=0;orthogonalLoop=1;jettySize=auto;html=1;curved=1;" parent="b8aBz9sjtjlgImkw413s-13" source="b8aBz9sjtjlgImkw413s-19" target="b8aBz9sjtjlgImkw413s-19" edge="1">
          <mxGeometry relative="1" as="geometry">
            <mxPoint x="135" y="380" as="targetPoint" />
          </mxGeometry>
        </mxCell>
        <mxCell id="b8aBz9sjtjlgImkw413s-19" value="" style="html=1;points=[];perimeter=orthogonalPerimeter;" parent="b8aBz9sjtjlgImkw413s-13" vertex="1">
          <mxGeometry x="45" y="340" width="10" height="80" as="geometry" />
        </mxCell>
        <mxCell id="b8aBz9sjtjlgImkw413s-20" value="" style="edgeStyle=orthogonalEdgeStyle;rounded=0;orthogonalLoop=1;jettySize=auto;html=1;curved=1;" parent="b8aBz9sjtjlgImkw413s-13" source="b8aBz9sjtjlgImkw413s-21" target="b8aBz9sjtjlgImkw413s-21" edge="1">
          <mxGeometry relative="1" as="geometry">
            <mxPoint x="135" y="480" as="targetPoint" />
          </mxGeometry>
        </mxCell>
        <mxCell id="b8aBz9sjtjlgImkw413s-21" value="" style="html=1;points=[];perimeter=orthogonalPerimeter;" parent="b8aBz9sjtjlgImkw413s-13" vertex="1">
          <mxGeometry x="45" y="440" width="10" height="80" as="geometry" />
        </mxCell>
        <mxCell id="b8aBz9sjtjlgImkw413s-22" value="" style="edgeStyle=orthogonalEdgeStyle;rounded=0;orthogonalLoop=1;jettySize=auto;html=1;dashed=1;" parent="b8aBz9sjtjlgImkw413s-1" source="b8aBz9sjtjlgImkw413s-8" target="b8aBz9sjtjlgImkw413s-14" edge="1">
          <mxGeometry relative="1" as="geometry">
            <Array as="points">
              <mxPoint x="750" y="230" />
              <mxPoint x="750" y="230" />
            </Array>
          </mxGeometry>
        </mxCell>
        <mxCell id="b8aBz9sjtjlgImkw413s-23" value="同步企业信息" style="text;html=1;align=center;verticalAlign=middle;resizable=0;points=[];autosize=1;" parent="b8aBz9sjtjlgImkw413s-1" vertex="1">
          <mxGeometry x="630" y="200" width="90" height="20" as="geometry" />
        </mxCell>
        <mxCell id="b8aBz9sjtjlgImkw413s-24" value="更新&lt;br&gt;企业信息" style="text;html=1;align=center;verticalAlign=middle;resizable=0;points=[];autosize=1;" parent="b8aBz9sjtjlgImkw413s-1" vertex="1">
          <mxGeometry x="845" y="230" width="60" height="30" as="geometry" />
        </mxCell>
        <mxCell id="b8aBz9sjtjlgImkw413s-25" value="" style="rounded=0;orthogonalLoop=1;jettySize=auto;html=1;dashed=1;" parent="b8aBz9sjtjlgImkw413s-1" source="b8aBz9sjtjlgImkw413s-8" target="b8aBz9sjtjlgImkw413s-17" edge="1">
          <mxGeometry relative="1" as="geometry">
            <Array as="points">
              <mxPoint x="690" y="340" />
            </Array>
          </mxGeometry>
        </mxCell>
        <mxCell id="b8aBz9sjtjlgImkw413s-26" value="同步企业部门信息" style="text;html=1;align=center;verticalAlign=middle;resizable=0;points=[];autosize=1;" parent="b8aBz9sjtjlgImkw413s-1" vertex="1">
          <mxGeometry x="630" y="310" width="110" height="20" as="geometry" />
        </mxCell>
        <mxCell id="b8aBz9sjtjlgImkw413s-27" value="更新&lt;br&gt;企业部门信息" style="text;html=1;align=center;verticalAlign=middle;resizable=0;points=[];autosize=1;" parent="b8aBz9sjtjlgImkw413s-1" vertex="1">
          <mxGeometry x="830" y="340" width="90" height="30" as="geometry" />
        </mxCell>
        <mxCell id="b8aBz9sjtjlgImkw413s-28" style="rounded=0;orthogonalLoop=1;jettySize=auto;html=1;dashed=1;" parent="b8aBz9sjtjlgImkw413s-1" source="b8aBz9sjtjlgImkw413s-8" target="b8aBz9sjtjlgImkw413s-19" edge="1">
          <mxGeometry relative="1" as="geometry">
            <Array as="points">
              <mxPoint x="690" y="440" />
            </Array>
          </mxGeometry>
        </mxCell>
        <mxCell id="b8aBz9sjtjlgImkw413s-29" value="同步企业员工信息" style="text;html=1;align=center;verticalAlign=middle;resizable=0;points=[];autosize=1;" parent="b8aBz9sjtjlgImkw413s-1" vertex="1">
          <mxGeometry x="630" y="410" width="110" height="20" as="geometry" />
        </mxCell>
        <mxCell id="b8aBz9sjtjlgImkw413s-30" style="rounded=0;orthogonalLoop=1;jettySize=auto;html=1;dashed=1;" parent="b8aBz9sjtjlgImkw413s-1" source="b8aBz9sjtjlgImkw413s-8" target="b8aBz9sjtjlgImkw413s-21" edge="1">
          <mxGeometry relative="1" as="geometry">
            <Array as="points">
              <mxPoint x="690" y="540" />
            </Array>
          </mxGeometry>
        </mxCell>
        <mxCell id="b8aBz9sjtjlgImkw413s-31" value="同步企业员工角色信息" style="text;html=1;align=center;verticalAlign=middle;resizable=0;points=[];autosize=1;" parent="b8aBz9sjtjlgImkw413s-1" vertex="1">
          <mxGeometry x="630" y="510" width="140" height="20" as="geometry" />
        </mxCell>
        <mxCell id="b8aBz9sjtjlgImkw413s-32" value="更新&lt;br&gt;企业员工信息" style="text;html=1;align=center;verticalAlign=middle;resizable=0;points=[];autosize=1;" parent="b8aBz9sjtjlgImkw413s-1" vertex="1">
          <mxGeometry x="840" y="450" width="90" height="30" as="geometry" />
        </mxCell>
        <mxCell id="b8aBz9sjtjlgImkw413s-33" value="更新&lt;br&gt;企业角色信息" style="text;html=1;align=center;verticalAlign=middle;resizable=0;points=[];autosize=1;" parent="b8aBz9sjtjlgImkw413s-1" vertex="1">
          <mxGeometry x="840" y="550" width="90" height="30" as="geometry" />
        </mxCell>
        <mxCell id="O9zTCRz-oTdFRSKnxAt3-3" value="企业开通：企业开通指的是企业管理员在钉钉后台入驻到飞巴应用上来，并为飞巴应用授权相应的企业信息。" style="text;html=1;align=left;verticalAlign=middle;resizable=0;points=[];autosize=1;" parent="b8aBz9sjtjlgImkw413s-1" vertex="1">
          <mxGeometry x="50" y="670" width="590" height="20" as="geometry" />
        </mxCell>
        <mxCell id="O9zTCRz-oTdFRSKnxAt3-4" value="聚石塔代理：根据钉钉第三方应用开发者规范要求，需要在聚石塔云平台上部署一个代理用于实现第三方服务与钉钉之间的服务交互，我们称为部署在聚石塔代理。" style="text;html=1;align=left;verticalAlign=middle;resizable=0;points=[];autosize=1;" parent="b8aBz9sjtjlgImkw413s-1" vertex="1">
          <mxGeometry x="50" y="720" width="880" height="20" as="geometry" />
        </mxCell>
        <mxCell id="O9zTCRz-oTdFRSKnxAt3-5" value="RDS：钉钉以推送关系型数据库（Relational Database System，RDS）表的形式同步数据到服务开发商部署在聚石塔的代理端，目前仅支持MySQL数据库。" style="text;html=1;align=left;verticalAlign=middle;resizable=0;points=[];autosize=1;" parent="b8aBz9sjtjlgImkw413s-1" vertex="1">
          <mxGeometry x="50" y="770" width="850" height="20" as="geometry" />
        </mxCell>
      </root>
    </mxGraphModel>
  </diagram>
  <diagram name="dingtalk_openapi_login_000" id="cJ42cOatGkmew3qd7-ZJ">
    <mxGraphModel dx="1422" dy="737" grid="1" gridSize="10" guides="1" tooltips="1" connect="1" arrows="1" fold="1" page="1" pageScale="1" pageWidth="1920" pageHeight="1200" background="#ffffff" math="0" shadow="0">
      <root>
        <mxCell id="nv8J5an0vgNy-mCbpt1U-0" />
        <mxCell id="nv8J5an0vgNy-mCbpt1U-1" parent="nv8J5an0vgNy-mCbpt1U-0" />
        <mxCell id="nv8J5an0vgNy-mCbpt1U-7" value="聚石塔代理" style="shape=umlLifeline;perimeter=lifelinePerimeter;whiteSpace=wrap;html=1;container=1;collapsible=0;recursiveResize=0;outlineConnect=0;" vertex="1" parent="nv8J5an0vgNy-mCbpt1U-1">
          <mxGeometry x="460" y="80" width="130" height="350" as="geometry" />
        </mxCell>
        <mxCell id="q7TvLnnVoWYgtDqp9FGh-17" value="获取免登授权码" style="text;html=1;align=center;verticalAlign=middle;resizable=0;points=[];autosize=1;" vertex="1" parent="nv8J5an0vgNy-mCbpt1U-7">
          <mxGeometry x="15" y="178" width="100" height="20" as="geometry" />
        </mxCell>
        <mxCell id="nv8J5an0vgNy-mCbpt1U-9" value="钉钉飞巴H5端" style="shape=umlLifeline;perimeter=lifelinePerimeter;whiteSpace=wrap;html=1;container=1;collapsible=0;recursiveResize=0;outlineConnect=0;" vertex="1" parent="nv8J5an0vgNy-mCbpt1U-1">
          <mxGeometry x="660" y="80" width="130" height="350" as="geometry" />
        </mxCell>
        <mxCell id="q7TvLnnVoWYgtDqp9FGh-12" value="" style="html=1;points=[];perimeter=orthogonalPerimeter;" vertex="1" parent="nv8J5an0vgNy-mCbpt1U-9">
          <mxGeometry x="60" y="154" width="10" height="186" as="geometry" />
        </mxCell>
        <mxCell id="nv8J5an0vgNy-mCbpt1U-12" value="飞巴开放平台" style="shape=umlLifeline;perimeter=lifelinePerimeter;whiteSpace=wrap;html=1;container=1;collapsible=0;recursiveResize=0;outlineConnect=0;" vertex="1" parent="nv8J5an0vgNy-mCbpt1U-1">
          <mxGeometry x="860" y="80" width="130" height="350" as="geometry" />
        </mxCell>
        <mxCell id="q7TvLnnVoWYgtDqp9FGh-25" value="" style="edgeStyle=orthogonalEdgeStyle;rounded=0;orthogonalLoop=1;jettySize=auto;html=1;curved=1;" edge="1" parent="nv8J5an0vgNy-mCbpt1U-12" source="q7TvLnnVoWYgtDqp9FGh-22" target="q7TvLnnVoWYgtDqp9FGh-22">
          <mxGeometry relative="1" as="geometry">
            <mxPoint x="150" y="313" as="targetPoint" />
          </mxGeometry>
        </mxCell>
        <mxCell id="q7TvLnnVoWYgtDqp9FGh-22" value="" style="html=1;points=[];perimeter=orthogonalPerimeter;" vertex="1" parent="nv8J5an0vgNy-mCbpt1U-12">
          <mxGeometry x="60" y="250" width="10" height="80" as="geometry" />
        </mxCell>
        <mxCell id="nv8J5an0vgNy-mCbpt1U-19" value="返回微应用免登授权码" style="text;html=1;align=center;verticalAlign=middle;resizable=0;points=[];autosize=1;" vertex="1" parent="nv8J5an0vgNy-mCbpt1U-1">
          <mxGeometry x="460" y="290" width="140" height="20" as="geometry" />
        </mxCell>
        <mxCell id="nv8J5an0vgNy-mCbpt1U-37" value="验签用户身份" style="text;html=1;align=center;verticalAlign=middle;resizable=0;points=[];autosize=1;" vertex="1" parent="nv8J5an0vgNy-mCbpt1U-1">
          <mxGeometry x="950" y="360" width="90" height="20" as="geometry" />
        </mxCell>
        <mxCell id="nv8J5an0vgNy-mCbpt1U-47" value="&lt;b&gt;钉钉开放平台第三方企业微应用之企业员工免登录业务流程&lt;/b&gt;" style="text;html=1;align=left;verticalAlign=middle;resizable=0;points=[];autosize=1;" vertex="1" parent="nv8J5an0vgNy-mCbpt1U-1">
          <mxGeometry x="40" y="40" width="330" height="20" as="geometry" />
        </mxCell>
        <mxCell id="RS4mXR8wTbXuYlRqKcMj-0" value="企业员工" style="shape=umlLifeline;perimeter=lifelinePerimeter;whiteSpace=wrap;html=1;container=1;collapsible=0;recursiveResize=0;outlineConnect=0;" vertex="1" parent="nv8J5an0vgNy-mCbpt1U-1">
          <mxGeometry x="40" y="80" width="130" height="350" as="geometry" />
        </mxCell>
        <mxCell id="RS4mXR8wTbXuYlRqKcMj-1" value="" style="html=1;points=[];perimeter=orthogonalPerimeter;" vertex="1" parent="RS4mXR8wTbXuYlRqKcMj-0">
          <mxGeometry x="60" y="60" width="10" height="40" as="geometry" />
        </mxCell>
        <mxCell id="RS4mXR8wTbXuYlRqKcMj-2" value="" style="html=1;points=[];perimeter=orthogonalPerimeter;" vertex="1" parent="RS4mXR8wTbXuYlRqKcMj-0">
          <mxGeometry x="60" y="132" width="10" height="48" as="geometry" />
        </mxCell>
        <mxCell id="q7TvLnnVoWYgtDqp9FGh-0" value="钉钉系统" style="shape=umlLifeline;perimeter=lifelinePerimeter;whiteSpace=wrap;html=1;container=1;collapsible=0;recursiveResize=0;outlineConnect=0;" vertex="1" parent="nv8J5an0vgNy-mCbpt1U-1">
          <mxGeometry x="260" y="80" width="130" height="350" as="geometry" />
        </mxCell>
        <mxCell id="q7TvLnnVoWYgtDqp9FGh-15" value="" style="html=1;points=[];perimeter=orthogonalPerimeter;" vertex="1" parent="q7TvLnnVoWYgtDqp9FGh-0">
          <mxGeometry x="60" y="190" width="10" height="48" as="geometry" />
        </mxCell>
        <mxCell id="q7TvLnnVoWYgtDqp9FGh-6" value="" style="html=1;points=[];perimeter=orthogonalPerimeter;" vertex="1" parent="q7TvLnnVoWYgtDqp9FGh-0">
          <mxGeometry x="60" y="70" width="10" height="40" as="geometry" />
        </mxCell>
        <mxCell id="q7TvLnnVoWYgtDqp9FGh-7" value="" style="edgeStyle=none;rounded=0;orthogonalLoop=1;jettySize=auto;html=1;" edge="1" parent="nv8J5an0vgNy-mCbpt1U-1" source="RS4mXR8wTbXuYlRqKcMj-1" target="q7TvLnnVoWYgtDqp9FGh-6">
          <mxGeometry relative="1" as="geometry" />
        </mxCell>
        <mxCell id="q7TvLnnVoWYgtDqp9FGh-10" value="登录" style="text;html=1;align=center;verticalAlign=middle;resizable=0;points=[];autosize=1;" vertex="1" parent="nv8J5an0vgNy-mCbpt1U-1">
          <mxGeometry x="190" y="140" width="40" height="20" as="geometry" />
        </mxCell>
        <mxCell id="q7TvLnnVoWYgtDqp9FGh-13" value="" style="edgeStyle=none;rounded=0;orthogonalLoop=1;jettySize=auto;html=1;" edge="1" parent="nv8J5an0vgNy-mCbpt1U-1" source="RS4mXR8wTbXuYlRqKcMj-2" target="q7TvLnnVoWYgtDqp9FGh-12">
          <mxGeometry relative="1" as="geometry" />
        </mxCell>
        <mxCell id="q7TvLnnVoWYgtDqp9FGh-14" value="进入钉钉上的飞巴应用H5端" style="text;html=1;align=center;verticalAlign=middle;resizable=0;points=[];autosize=1;" vertex="1" parent="nv8J5an0vgNy-mCbpt1U-1">
          <mxGeometry x="340" y="210" width="160" height="20" as="geometry" />
        </mxCell>
        <mxCell id="q7TvLnnVoWYgtDqp9FGh-16" value="" style="edgeStyle=none;rounded=0;orthogonalLoop=1;jettySize=auto;html=1;" edge="1" parent="nv8J5an0vgNy-mCbpt1U-1" source="q7TvLnnVoWYgtDqp9FGh-12" target="q7TvLnnVoWYgtDqp9FGh-15">
          <mxGeometry relative="1" as="geometry">
            <Array as="points">
              <mxPoint x="530" y="280" />
            </Array>
          </mxGeometry>
        </mxCell>
        <mxCell id="q7TvLnnVoWYgtDqp9FGh-21" value="" style="edgeStyle=none;rounded=0;orthogonalLoop=1;jettySize=auto;html=1;dashed=1;" edge="1" parent="nv8J5an0vgNy-mCbpt1U-1" source="q7TvLnnVoWYgtDqp9FGh-15">
          <mxGeometry relative="1" as="geometry">
            <mxPoint x="720" y="310" as="targetPoint" />
            <Array as="points">
              <mxPoint x="370" y="310" />
            </Array>
          </mxGeometry>
        </mxCell>
        <mxCell id="q7TvLnnVoWYgtDqp9FGh-23" value="" style="edgeStyle=none;rounded=0;orthogonalLoop=1;jettySize=auto;html=1;" edge="1" parent="nv8J5an0vgNy-mCbpt1U-1" source="q7TvLnnVoWYgtDqp9FGh-12" target="q7TvLnnVoWYgtDqp9FGh-22">
          <mxGeometry relative="1" as="geometry" />
        </mxCell>
        <mxCell id="q7TvLnnVoWYgtDqp9FGh-29" value="" style="edgeStyle=none;rounded=0;orthogonalLoop=1;jettySize=auto;html=1;exitX=-0.2;exitY=0.76;exitDx=0;exitDy=0;exitPerimeter=0;entryX=1.16;entryY=0.843;entryDx=0;entryDy=0;entryPerimeter=0;" edge="1" parent="nv8J5an0vgNy-mCbpt1U-1" source="q7TvLnnVoWYgtDqp9FGh-22" target="q7TvLnnVoWYgtDqp9FGh-12">
          <mxGeometry relative="1" as="geometry">
            <mxPoint x="730" y="400" as="targetPoint" />
            <Array as="points">
              <mxPoint x="810" y="391" />
            </Array>
          </mxGeometry>
        </mxCell>
        <mxCell id="q7TvLnnVoWYgtDqp9FGh-32" value="登录" style="text;html=1;align=center;verticalAlign=middle;resizable=0;points=[];autosize=1;" vertex="1" parent="nv8J5an0vgNy-mCbpt1U-1">
          <mxGeometry x="810" y="300" width="40" height="20" as="geometry" />
        </mxCell>
        <mxCell id="q7TvLnnVoWYgtDqp9FGh-33" value="登录成功，重定义页面" style="text;html=1;align=center;verticalAlign=middle;resizable=0;points=[];autosize=1;" vertex="1" parent="nv8J5an0vgNy-mCbpt1U-1">
          <mxGeometry x="760" y="360" width="140" height="20" as="geometry" />
        </mxCell>
        <mxCell id="JGWIEfz680Y_tesZq3BN-0" value="企业开通：企业开通指的是企业管理员在钉钉后台入驻到飞巴应用上来，并为飞巴应用授权相应的企业信息。" style="text;html=1;align=left;verticalAlign=middle;resizable=0;points=[];autosize=1;" vertex="1" parent="nv8J5an0vgNy-mCbpt1U-1">
          <mxGeometry x="40" y="520" width="590" height="20" as="geometry" />
        </mxCell>
        <mxCell id="JGWIEfz680Y_tesZq3BN-1" value="聚石塔代理：根据钉钉第三方应用开发者规范要求，需要在聚石塔云平台上部署一个代理用于实现第三方服务与钉钉之间的服务交互，我们称为部署在聚石塔代理。" style="text;html=1;align=left;verticalAlign=middle;resizable=0;points=[];autosize=1;" vertex="1" parent="nv8J5an0vgNy-mCbpt1U-1">
          <mxGeometry x="40" y="570" width="880" height="20" as="geometry" />
        </mxCell>
      </root>
    </mxGraphModel>
  </diagram>
  <diagram name="dingtalk_openapi_trip_000" id="DWTNc-aNZ8CqAhASyUoV">
    <mxGraphModel dx="1422" dy="737" grid="1" gridSize="10" guides="1" tooltips="1" connect="1" arrows="1" fold="1" page="1" pageScale="1" pageWidth="1200" pageHeight="1920" math="0" shadow="0">
      <root>
        <mxCell id="rUmZnQg3aihx_nzFNHEp-0" />
        <mxCell id="rUmZnQg3aihx_nzFNHEp-1" parent="rUmZnQg3aihx_nzFNHEp-0" />
        <mxCell id="rUmZnQg3aihx_nzFNHEp-2" value="&lt;b&gt;出差申请单流程（1）&lt;/b&gt;" style="text;html=1;strokeColor=none;fillColor=none;align=left;verticalAlign=middle;whiteSpace=wrap;rounded=0;" parent="rUmZnQg3aihx_nzFNHEp-1" vertex="1">
          <mxGeometry x="40" y="40" width="120" height="20" as="geometry" />
        </mxCell>
        <mxCell id="rUmZnQg3aihx_nzFNHEp-3" value="企业员工" style="shape=umlLifeline;perimeter=lifelinePerimeter;whiteSpace=wrap;html=1;container=1;collapsible=0;recursiveResize=0;outlineConnect=0;" parent="rUmZnQg3aihx_nzFNHEp-1" vertex="1">
          <mxGeometry x="240" y="80" width="100" height="400" as="geometry" />
        </mxCell>
        <mxCell id="rUmZnQg3aihx_nzFNHEp-43" value="" style="html=1;points=[];perimeter=orthogonalPerimeter;" parent="rUmZnQg3aihx_nzFNHEp-3" vertex="1">
          <mxGeometry x="45" y="200" width="10" height="80" as="geometry" />
        </mxCell>
        <mxCell id="rUmZnQg3aihx_nzFNHEp-5" value="钉钉系统" style="shape=umlLifeline;perimeter=lifelinePerimeter;whiteSpace=wrap;html=1;container=1;collapsible=0;recursiveResize=0;outlineConnect=0;" parent="rUmZnQg3aihx_nzFNHEp-1" vertex="1">
          <mxGeometry x="480" y="80" width="100" height="400" as="geometry" />
        </mxCell>
        <mxCell id="rUmZnQg3aihx_nzFNHEp-6" value="" style="html=1;points=[];perimeter=orthogonalPerimeter;" parent="rUmZnQg3aihx_nzFNHEp-5" vertex="1">
          <mxGeometry x="45" y="80" width="10" height="80" as="geometry" />
        </mxCell>
        <mxCell id="rUmZnQg3aihx_nzFNHEp-44" value="" style="html=1;points=[];perimeter=orthogonalPerimeter;" parent="rUmZnQg3aihx_nzFNHEp-5" vertex="1">
          <mxGeometry x="45" y="230" width="10" height="80" as="geometry" />
        </mxCell>
        <mxCell id="rUmZnQg3aihx_nzFNHEp-7" value="聚石塔代理" style="shape=umlLifeline;perimeter=lifelinePerimeter;whiteSpace=wrap;html=1;container=1;collapsible=0;recursiveResize=0;outlineConnect=0;" parent="rUmZnQg3aihx_nzFNHEp-1" vertex="1">
          <mxGeometry x="720" y="80" width="100" height="400" as="geometry" />
        </mxCell>
        <mxCell id="rUmZnQg3aihx_nzFNHEp-46" value="" style="html=1;points=[];perimeter=orthogonalPerimeter;" parent="rUmZnQg3aihx_nzFNHEp-7" vertex="1">
          <mxGeometry x="45" y="260" width="10" height="80" as="geometry" />
        </mxCell>
        <mxCell id="rUmZnQg3aihx_nzFNHEp-9" value="" style="edgeStyle=orthogonalEdgeStyle;rounded=0;orthogonalLoop=1;jettySize=auto;html=1;" parent="rUmZnQg3aihx_nzFNHEp-1" source="rUmZnQg3aihx_nzFNHEp-4" target="rUmZnQg3aihx_nzFNHEp-6" edge="1">
          <mxGeometry relative="1" as="geometry">
            <Array as="points">
              <mxPoint x="420" y="170" />
              <mxPoint x="420" y="170" />
            </Array>
          </mxGeometry>
        </mxCell>
        <mxCell id="rUmZnQg3aihx_nzFNHEp-10" value="在钉钉企业管理后台设计出差申请单模板" style="text;html=1;align=center;verticalAlign=middle;resizable=0;points=[];autosize=1;" parent="rUmZnQg3aihx_nzFNHEp-1" vertex="1">
          <mxGeometry x="190" y="140" width="230" height="20" as="geometry" />
        </mxCell>
        <mxCell id="rUmZnQg3aihx_nzFNHEp-12" value="以RDS方式推送企业审批信息" style="text;html=1;align=center;verticalAlign=middle;resizable=0;points=[];autosize=1;" parent="rUmZnQg3aihx_nzFNHEp-1" vertex="1">
          <mxGeometry x="570" y="326" width="170" height="20" as="geometry" />
        </mxCell>
        <mxCell id="rUmZnQg3aihx_nzFNHEp-13" value="飞巴开放平台" style="shape=umlLifeline;perimeter=lifelinePerimeter;whiteSpace=wrap;html=1;container=1;collapsible=0;recursiveResize=0;outlineConnect=0;" parent="rUmZnQg3aihx_nzFNHEp-1" vertex="1">
          <mxGeometry x="960" y="80" width="100" height="400" as="geometry" />
        </mxCell>
        <mxCell id="rUmZnQg3aihx_nzFNHEp-48" value="" style="html=1;points=[];perimeter=orthogonalPerimeter;" parent="rUmZnQg3aihx_nzFNHEp-13" vertex="1">
          <mxGeometry x="45" y="290" width="10" height="80" as="geometry" />
        </mxCell>
        <mxCell id="rUmZnQg3aihx_nzFNHEp-50" style="edgeStyle=orthogonalEdgeStyle;rounded=0;orthogonalLoop=1;jettySize=auto;html=1;curved=1;" parent="rUmZnQg3aihx_nzFNHEp-13" source="rUmZnQg3aihx_nzFNHEp-48" target="rUmZnQg3aihx_nzFNHEp-48" edge="1">
          <mxGeometry relative="1" as="geometry" />
        </mxCell>
        <mxCell id="rUmZnQg3aihx_nzFNHEp-23" value="同步审批通过的出差申请单" style="text;html=1;align=center;verticalAlign=middle;resizable=0;points=[];autosize=1;" parent="rUmZnQg3aihx_nzFNHEp-1" vertex="1">
          <mxGeometry x="800" y="353" width="160" height="20" as="geometry" />
        </mxCell>
        <mxCell id="rUmZnQg3aihx_nzFNHEp-24" value="更新企业&lt;br&gt;出差申请单信息" style="text;html=1;align=center;verticalAlign=middle;resizable=0;points=[];autosize=1;" parent="rUmZnQg3aihx_nzFNHEp-1" vertex="1">
          <mxGeometry x="1040" y="390" width="100" height="30" as="geometry" />
        </mxCell>
        <mxCell id="rUmZnQg3aihx_nzFNHEp-34" value="企业开通：企业开通指的是企业管理员在钉钉后台入驻到飞巴应用上来，并为飞巴应用授权相应的企业信息。" style="text;html=1;align=left;verticalAlign=middle;resizable=0;points=[];autosize=1;" parent="rUmZnQg3aihx_nzFNHEp-1" vertex="1">
          <mxGeometry x="40" y="1000" width="590" height="20" as="geometry" />
        </mxCell>
        <mxCell id="rUmZnQg3aihx_nzFNHEp-35" value="聚石塔代理：根据钉钉第三方应用开发者规范要求，需要在聚石塔云平台上部署一个代理用于实现第三方服务与钉钉之间的服务交互，我们称为部署在聚石塔代理。" style="text;html=1;align=left;verticalAlign=middle;resizable=0;points=[];autosize=1;" parent="rUmZnQg3aihx_nzFNHEp-1" vertex="1">
          <mxGeometry x="40" y="1050" width="880" height="20" as="geometry" />
        </mxCell>
        <mxCell id="rUmZnQg3aihx_nzFNHEp-36" value="RDS：钉钉以推送关系型数据库（Relational Database System，RDS）表的形式同步数据到服务开发商部署在聚石塔的代理端，目前仅支持MySQL数据库。" style="text;html=1;align=left;verticalAlign=middle;resizable=0;points=[];autosize=1;" parent="rUmZnQg3aihx_nzFNHEp-1" vertex="1">
          <mxGeometry x="40" y="1100" width="850" height="20" as="geometry" />
        </mxCell>
        <mxCell id="rUmZnQg3aihx_nzFNHEp-42" value="企业员工在钉钉上提交&lt;br&gt;出差申请单并走相关流程" style="text;html=1;align=center;verticalAlign=middle;resizable=0;points=[];autosize=1;" parent="rUmZnQg3aihx_nzFNHEp-1" vertex="1">
          <mxGeometry x="320" y="280" width="150" height="30" as="geometry" />
        </mxCell>
        <mxCell id="rUmZnQg3aihx_nzFNHEp-45" value="" style="edgeStyle=none;rounded=0;orthogonalLoop=1;jettySize=auto;html=1;" parent="rUmZnQg3aihx_nzFNHEp-1" source="rUmZnQg3aihx_nzFNHEp-43" target="rUmZnQg3aihx_nzFNHEp-44" edge="1">
          <mxGeometry relative="1" as="geometry" />
        </mxCell>
        <mxCell id="rUmZnQg3aihx_nzFNHEp-47" value="" style="edgeStyle=none;rounded=0;orthogonalLoop=1;jettySize=auto;html=1;" parent="rUmZnQg3aihx_nzFNHEp-1" source="rUmZnQg3aihx_nzFNHEp-44" target="rUmZnQg3aihx_nzFNHEp-46" edge="1">
          <mxGeometry relative="1" as="geometry" />
        </mxCell>
        <mxCell id="rUmZnQg3aihx_nzFNHEp-49" value="" style="edgeStyle=none;rounded=0;orthogonalLoop=1;jettySize=auto;html=1;" parent="rUmZnQg3aihx_nzFNHEp-1" source="rUmZnQg3aihx_nzFNHEp-46" target="rUmZnQg3aihx_nzFNHEp-48" edge="1">
          <mxGeometry relative="1" as="geometry" />
        </mxCell>
        <mxCell id="0UXRzjBFY4u7Ddw7iprP-0" value="企业管理员" style="shape=umlLifeline;perimeter=lifelinePerimeter;whiteSpace=wrap;html=1;container=1;collapsible=0;recursiveResize=0;outlineConnect=0;" vertex="1" parent="rUmZnQg3aihx_nzFNHEp-1">
          <mxGeometry x="40" y="80" width="100" height="400" as="geometry" />
        </mxCell>
        <mxCell id="rUmZnQg3aihx_nzFNHEp-4" value="" style="html=1;points=[];perimeter=orthogonalPerimeter;" parent="0UXRzjBFY4u7Ddw7iprP-0" vertex="1">
          <mxGeometry x="45" y="70" width="10" height="80" as="geometry" />
        </mxCell>
      </root>
    </mxGraphModel>
  </diagram>
  <diagram name="dingtalk_openapi_trip_001" id="c7aU_QdEyIBz6LwK8YNM">
    <mxGraphModel dx="1422" dy="737" grid="1" gridSize="10" guides="1" tooltips="1" connect="1" arrows="1" fold="1" page="1" pageScale="1" pageWidth="1200" pageHeight="1920" math="0" shadow="0">
      <root>
        <mxCell id="uwj_sU0_lkn4Eh4Ci_SE-0" />
        <mxCell id="uwj_sU0_lkn4Eh4Ci_SE-1" parent="uwj_sU0_lkn4Eh4Ci_SE-0" />
        <mxCell id="uwj_sU0_lkn4Eh4Ci_SE-2" value="&lt;b&gt;出差申请单流程（2）&lt;/b&gt;" style="text;html=1;strokeColor=none;fillColor=none;align=left;verticalAlign=middle;whiteSpace=wrap;rounded=0;" vertex="1" parent="uwj_sU0_lkn4Eh4Ci_SE-1">
          <mxGeometry x="40" y="40" width="120" height="20" as="geometry" />
        </mxCell>
        <mxCell id="uwj_sU0_lkn4Eh4Ci_SE-3" value="企业员工A" style="shape=umlLifeline;perimeter=lifelinePerimeter;whiteSpace=wrap;html=1;container=1;collapsible=0;recursiveResize=0;outlineConnect=0;" vertex="1" parent="uwj_sU0_lkn4Eh4Ci_SE-1">
          <mxGeometry x="360" y="80" width="100" height="400" as="geometry" />
        </mxCell>
        <mxCell id="uwj_sU0_lkn4Eh4Ci_SE-4" value="" style="html=1;points=[];perimeter=orthogonalPerimeter;" vertex="1" parent="uwj_sU0_lkn4Eh4Ci_SE-3">
          <mxGeometry x="45" y="140" width="10" height="50" as="geometry" />
        </mxCell>
        <mxCell id="uwj_sU0_lkn4Eh4Ci_SE-46" value="审批出差申请单001" style="text;html=1;align=center;verticalAlign=middle;resizable=0;points=[];autosize=1;" vertex="1" parent="uwj_sU0_lkn4Eh4Ci_SE-3">
          <mxGeometry x="-15" y="260" width="120" height="20" as="geometry" />
        </mxCell>
        <mxCell id="uwj_sU0_lkn4Eh4Ci_SE-5" value="钉钉系统" style="shape=umlLifeline;perimeter=lifelinePerimeter;whiteSpace=wrap;html=1;container=1;collapsible=0;recursiveResize=0;outlineConnect=0;" vertex="1" parent="uwj_sU0_lkn4Eh4Ci_SE-1">
          <mxGeometry x="540" y="80" width="100" height="440" as="geometry" />
        </mxCell>
        <mxCell id="uwj_sU0_lkn4Eh4Ci_SE-27" value="" style="html=1;points=[];perimeter=orthogonalPerimeter;" vertex="1" parent="uwj_sU0_lkn4Eh4Ci_SE-5">
          <mxGeometry x="45" y="80" width="10" height="40" as="geometry" />
        </mxCell>
        <mxCell id="uwj_sU0_lkn4Eh4Ci_SE-33" value="" style="html=1;points=[];perimeter=orthogonalPerimeter;" vertex="1" parent="uwj_sU0_lkn4Eh4Ci_SE-5">
          <mxGeometry x="45" y="210" width="10" height="30" as="geometry" />
        </mxCell>
        <mxCell id="uwj_sU0_lkn4Eh4Ci_SE-44" value="" style="html=1;points=[];perimeter=orthogonalPerimeter;" vertex="1" parent="uwj_sU0_lkn4Eh4Ci_SE-5">
          <mxGeometry x="45" y="280" width="10" height="80" as="geometry" />
        </mxCell>
        <mxCell id="uwj_sU0_lkn4Eh4Ci_SE-8" value="聚石塔代理" style="shape=umlLifeline;perimeter=lifelinePerimeter;whiteSpace=wrap;html=1;container=1;collapsible=0;recursiveResize=0;outlineConnect=0;" vertex="1" parent="uwj_sU0_lkn4Eh4Ci_SE-1">
          <mxGeometry x="720" y="80" width="100" height="440" as="geometry" />
        </mxCell>
        <mxCell id="uwj_sU0_lkn4Eh4Ci_SE-31" value="" style="html=1;points=[];perimeter=orthogonalPerimeter;" vertex="1" parent="uwj_sU0_lkn4Eh4Ci_SE-8">
          <mxGeometry x="45" y="210" width="10" height="30" as="geometry" />
        </mxCell>
        <mxCell id="uwj_sU0_lkn4Eh4Ci_SE-47" value="" style="html=1;points=[];perimeter=orthogonalPerimeter;" vertex="1" parent="uwj_sU0_lkn4Eh4Ci_SE-8">
          <mxGeometry x="45" y="290" width="10" height="80" as="geometry" />
        </mxCell>
        <mxCell id="uwj_sU0_lkn4Eh4Ci_SE-11" value="在钉钉企业管理后台设计出差申请单模板" style="text;html=1;align=center;verticalAlign=middle;resizable=0;points=[];autosize=1;" vertex="1" parent="uwj_sU0_lkn4Eh4Ci_SE-1">
          <mxGeometry x="220" y="140" width="230" height="20" as="geometry" />
        </mxCell>
        <mxCell id="uwj_sU0_lkn4Eh4Ci_SE-13" value="飞巴开放平台" style="shape=umlLifeline;perimeter=lifelinePerimeter;whiteSpace=wrap;html=1;container=1;collapsible=0;recursiveResize=0;outlineConnect=0;" vertex="1" parent="uwj_sU0_lkn4Eh4Ci_SE-1">
          <mxGeometry x="880" y="80" width="100" height="440" as="geometry" />
        </mxCell>
        <mxCell id="uwj_sU0_lkn4Eh4Ci_SE-30" value="" style="edgeStyle=orthogonalEdgeStyle;rounded=0;orthogonalLoop=1;jettySize=auto;html=1;curved=1;" edge="1" parent="uwj_sU0_lkn4Eh4Ci_SE-13" source="uwj_sU0_lkn4Eh4Ci_SE-7" target="uwj_sU0_lkn4Eh4Ci_SE-7">
          <mxGeometry relative="1" as="geometry">
            <mxPoint x="135" y="190" as="targetPoint" />
          </mxGeometry>
        </mxCell>
        <mxCell id="uwj_sU0_lkn4Eh4Ci_SE-7" value="" style="html=1;points=[];perimeter=orthogonalPerimeter;" vertex="1" parent="uwj_sU0_lkn4Eh4Ci_SE-13">
          <mxGeometry x="45" y="150" width="10" height="80" as="geometry" />
        </mxCell>
        <mxCell id="uwj_sU0_lkn4Eh4Ci_SE-50" value="" style="html=1;points=[];perimeter=orthogonalPerimeter;" vertex="1" parent="uwj_sU0_lkn4Eh4Ci_SE-13">
          <mxGeometry x="45" y="330" width="10" height="80" as="geometry" />
        </mxCell>
        <mxCell id="uwj_sU0_lkn4Eh4Ci_SE-54" value="" style="rounded=0;orthogonalLoop=1;jettySize=auto;html=1;edgeStyle=orthogonalEdgeStyle;curved=1;" edge="1" parent="uwj_sU0_lkn4Eh4Ci_SE-13" source="uwj_sU0_lkn4Eh4Ci_SE-50" target="uwj_sU0_lkn4Eh4Ci_SE-50">
          <mxGeometry relative="1" as="geometry">
            <mxPoint x="135" y="350" as="targetPoint" />
          </mxGeometry>
        </mxCell>
        <mxCell id="uwj_sU0_lkn4Eh4Ci_SE-18" value="企业开通：企业开通指的是企业管理员在钉钉后台入驻到飞巴应用上来，并为飞巴应用授权相应的企业信息。" style="text;html=1;align=left;verticalAlign=middle;resizable=0;points=[];autosize=1;" vertex="1" parent="uwj_sU0_lkn4Eh4Ci_SE-1">
          <mxGeometry x="40" y="600" width="590" height="20" as="geometry" />
        </mxCell>
        <mxCell id="uwj_sU0_lkn4Eh4Ci_SE-19" value="聚石塔代理：根据钉钉第三方应用开发者规范要求，需要在聚石塔云平台上部署一个代理用于实现第三方服务与钉钉之间的服务交互，我们称为部署在聚石塔代理。" style="text;html=1;align=left;verticalAlign=middle;resizable=0;points=[];autosize=1;" vertex="1" parent="uwj_sU0_lkn4Eh4Ci_SE-1">
          <mxGeometry x="40" y="650" width="880" height="20" as="geometry" />
        </mxCell>
        <mxCell id="uwj_sU0_lkn4Eh4Ci_SE-21" value="提交出差申请单" style="text;html=1;align=center;verticalAlign=middle;resizable=0;points=[];autosize=1;" vertex="1" parent="uwj_sU0_lkn4Eh4Ci_SE-1">
          <mxGeometry x="650" y="210" width="100" height="20" as="geometry" />
        </mxCell>
        <mxCell id="uwj_sU0_lkn4Eh4Ci_SE-22" value="" style="edgeStyle=none;rounded=0;orthogonalLoop=1;jettySize=auto;html=1;" edge="1" parent="uwj_sU0_lkn4Eh4Ci_SE-1" source="uwj_sU0_lkn4Eh4Ci_SE-4" target="uwj_sU0_lkn4Eh4Ci_SE-7">
          <mxGeometry relative="1" as="geometry">
            <Array as="points">
              <mxPoint x="650" y="240" />
            </Array>
          </mxGeometry>
        </mxCell>
        <mxCell id="uwj_sU0_lkn4Eh4Ci_SE-25" value="企业管理员" style="shape=umlLifeline;perimeter=lifelinePerimeter;whiteSpace=wrap;html=1;container=1;collapsible=0;recursiveResize=0;outlineConnect=0;" vertex="1" parent="uwj_sU0_lkn4Eh4Ci_SE-1">
          <mxGeometry x="40" y="80" width="100" height="400" as="geometry" />
        </mxCell>
        <mxCell id="uwj_sU0_lkn4Eh4Ci_SE-26" value="" style="html=1;points=[];perimeter=orthogonalPerimeter;" vertex="1" parent="uwj_sU0_lkn4Eh4Ci_SE-25">
          <mxGeometry x="45" y="70" width="10" height="50" as="geometry" />
        </mxCell>
        <mxCell id="uwj_sU0_lkn4Eh4Ci_SE-28" value="" style="rounded=0;orthogonalLoop=1;jettySize=auto;html=1;" edge="1" parent="uwj_sU0_lkn4Eh4Ci_SE-1" source="uwj_sU0_lkn4Eh4Ci_SE-26" target="uwj_sU0_lkn4Eh4Ci_SE-27">
          <mxGeometry relative="1" as="geometry">
            <Array as="points">
              <mxPoint x="310" y="170" />
            </Array>
          </mxGeometry>
        </mxCell>
        <mxCell id="uwj_sU0_lkn4Eh4Ci_SE-32" value="" style="edgeStyle=none;rounded=0;orthogonalLoop=1;jettySize=auto;html=1;" edge="1" parent="uwj_sU0_lkn4Eh4Ci_SE-1" source="uwj_sU0_lkn4Eh4Ci_SE-7" target="uwj_sU0_lkn4Eh4Ci_SE-31">
          <mxGeometry relative="1" as="geometry" />
        </mxCell>
        <mxCell id="uwj_sU0_lkn4Eh4Ci_SE-34" value="" style="edgeStyle=none;rounded=0;orthogonalLoop=1;jettySize=auto;html=1;dashed=1;" edge="1" parent="uwj_sU0_lkn4Eh4Ci_SE-1" source="uwj_sU0_lkn4Eh4Ci_SE-31" target="uwj_sU0_lkn4Eh4Ci_SE-33">
          <mxGeometry relative="1" as="geometry" />
        </mxCell>
        <mxCell id="uwj_sU0_lkn4Eh4Ci_SE-35" value="创建&lt;br&gt;出差申请单001" style="text;html=1;align=center;verticalAlign=middle;resizable=0;points=[];autosize=1;" vertex="1" parent="uwj_sU0_lkn4Eh4Ci_SE-1">
          <mxGeometry x="950" y="260" width="100" height="30" as="geometry" />
        </mxCell>
        <mxCell id="uwj_sU0_lkn4Eh4Ci_SE-36" value="同步&lt;br&gt;出差申请单001" style="text;html=1;align=center;verticalAlign=middle;resizable=0;points=[];autosize=1;" vertex="1" parent="uwj_sU0_lkn4Eh4Ci_SE-1">
          <mxGeometry x="810" y="260" width="100" height="30" as="geometry" />
        </mxCell>
        <mxCell id="uwj_sU0_lkn4Eh4Ci_SE-37" value="异步同步&lt;br&gt;出差申请单001" style="text;html=1;align=center;verticalAlign=middle;resizable=0;points=[];autosize=1;" vertex="1" parent="uwj_sU0_lkn4Eh4Ci_SE-1">
          <mxGeometry x="640" y="275" width="100" height="30" as="geometry" />
        </mxCell>
        <mxCell id="uwj_sU0_lkn4Eh4Ci_SE-38" value="企业员工B" style="shape=umlLifeline;perimeter=lifelinePerimeter;whiteSpace=wrap;html=1;container=1;collapsible=0;recursiveResize=0;outlineConnect=0;" vertex="1" parent="uwj_sU0_lkn4Eh4Ci_SE-1">
          <mxGeometry x="200" y="80" width="100" height="400" as="geometry" />
        </mxCell>
        <mxCell id="uwj_sU0_lkn4Eh4Ci_SE-42" value="" style="html=1;points=[];perimeter=orthogonalPerimeter;" vertex="1" parent="uwj_sU0_lkn4Eh4Ci_SE-38">
          <mxGeometry x="45" y="260" width="10" height="80" as="geometry" />
        </mxCell>
        <mxCell id="uwj_sU0_lkn4Eh4Ci_SE-45" value="" style="edgeStyle=none;rounded=0;orthogonalLoop=1;jettySize=auto;html=1;" edge="1" parent="uwj_sU0_lkn4Eh4Ci_SE-1" source="uwj_sU0_lkn4Eh4Ci_SE-42" target="uwj_sU0_lkn4Eh4Ci_SE-44">
          <mxGeometry relative="1" as="geometry">
            <Array as="points">
              <mxPoint x="430" y="370" />
            </Array>
          </mxGeometry>
        </mxCell>
        <mxCell id="uwj_sU0_lkn4Eh4Ci_SE-48" value="" style="edgeStyle=none;rounded=0;orthogonalLoop=1;jettySize=auto;html=1;" edge="1" parent="uwj_sU0_lkn4Eh4Ci_SE-1" source="uwj_sU0_lkn4Eh4Ci_SE-44" target="uwj_sU0_lkn4Eh4Ci_SE-47">
          <mxGeometry relative="1" as="geometry" />
        </mxCell>
        <mxCell id="uwj_sU0_lkn4Eh4Ci_SE-49" value="同步&lt;br&gt;出差申请单001状态" style="text;html=1;align=center;verticalAlign=middle;resizable=0;points=[];autosize=1;" vertex="1" parent="uwj_sU0_lkn4Eh4Ci_SE-1">
          <mxGeometry x="620" y="365" width="120" height="30" as="geometry" />
        </mxCell>
        <mxCell id="uwj_sU0_lkn4Eh4Ci_SE-51" value="" style="edgeStyle=none;rounded=0;orthogonalLoop=1;jettySize=auto;html=1;" edge="1" parent="uwj_sU0_lkn4Eh4Ci_SE-1" source="uwj_sU0_lkn4Eh4Ci_SE-47" target="uwj_sU0_lkn4Eh4Ci_SE-50">
          <mxGeometry relative="1" as="geometry">
            <Array as="points">
              <mxPoint x="860" y="430" />
            </Array>
          </mxGeometry>
        </mxCell>
        <mxCell id="uwj_sU0_lkn4Eh4Ci_SE-52" value="同步&lt;br&gt;出差申请单001状态" style="text;html=1;align=center;verticalAlign=middle;resizable=0;points=[];autosize=1;" vertex="1" parent="uwj_sU0_lkn4Eh4Ci_SE-1">
          <mxGeometry x="790" y="395" width="120" height="30" as="geometry" />
        </mxCell>
        <mxCell id="uwj_sU0_lkn4Eh4Ci_SE-55" value="更新&lt;br&gt;出差申请单001" style="text;html=1;align=center;verticalAlign=middle;resizable=0;points=[];autosize=1;" vertex="1" parent="uwj_sU0_lkn4Eh4Ci_SE-1">
          <mxGeometry x="960" y="440" width="100" height="30" as="geometry" />
        </mxCell>
      </root>
    </mxGraphModel>
  </diagram>
</mxfile>
